<?xml version="1.0" standalone="no"?>
<!DOCTYPE svg PUBLIC "-//W3C//DTD SVG 1.1//EN" "http://www.w3.org/Graphics/SVG/1.1/DTD/svg11.dtd" >
<!--
2013-9-30: Created.
-->
<svg>
<metadata>
Created by iconfont
</metadata>
<defs>

<font id="iconfont" horiz-adv-x="1024" >
  <font-face
    font-family="iconfont"
    font-weight="500"
    font-stretch="normal"
    units-per-em="1024"
    ascent="896"
    descent="-128"
  />
    <missing-glyph />
    
    <glyph glyph-name="yinyong" unicode="&#59069;" d="M258.24256 310.36415999999997c-35.01511111 0-63.44590222-29.44796445-63.44590222-65.80906667 0-36.34176 28.42965333-65.79086222 63.44590222-65.79086222 35.06289778 0 63.44476445 29.44910222 63.44476445 65.79086222C321.68732445 280.91619555 293.30545778 310.36415999999997 258.24256 310.36415999999997L258.24256 310.36415999999997 258.24256 310.36415999999997zM512.02275555 310.36415999999997c-35.06403555 0-63.44476445-29.44796445-63.44476444-65.80906667 0-36.34176 28.37959111-65.79086222 63.44476444-65.79086222 35.01397333 0 63.39584 29.44910222 63.39584 65.79086222C575.41973333 280.91619555 547.03786667 310.36415999999997 512.02275555 310.36415999999997L512.02275555 310.36415999999997 512.02275555 310.36415999999997zM765.75630222 310.36415999999997c-35.01283555 0-63.44476445-29.44796445-63.44476444-65.80906667 0-36.34176 28.43079111-65.79086222 63.44476444-65.79086222 35.01511111 0 63.44590222 29.44910222 63.44590223 65.79086222C829.19992889 280.91619555 800.77141333 310.36415999999997 765.75630222 310.36415999999997L765.75630222 310.36415999999997 765.75630222 310.36415999999997zM131.35303111-90.98467555000002l761.24615111 0c70.07914667 0 126.88839111 58.93688889 126.88839111 131.6295111L1019.48757333 534.17528889c0 72.67328-58.05738667 139.65880889-129.73283555 139.65880889L696.37461333 673.83409778C662.70663111 709.74805333 523.19687111 854.14456889 523.19687111 854.14456889c-6.18609778 6.45575111-16.20992 6.45575111-22.39488 0 0 0-102.15196445-115.76775111-168.69034666-180.31047111L134.24412445 673.83409778c-71.67658667 0-129.73283555-66.98552889-129.73283556-139.65880889l0-493.52931556C4.51015111-32.04778667000005 61.32167111-90.98467555000002 131.35303111-90.98467555000002L131.35303111-90.98467555000002 131.35303111-90.98467555000002zM67.95605333 534.17528889c0 36.33038222 30.47537778 74.46755555 66.28807112 74.46755556l194.57706666 0c23.59182222 0 44.79203555 24.21191111 44.79203556 24.2119111l136.61639111 141.73411556L646.84487111 632.8547555499999c0 0 25.98798222-24.21191111 48.28273778-24.2119111l194.62826666 0c35.81383111 0 66.28920889-38.13831111 66.2892089-74.46755556l0-493.52817778c0-36.36110222-28.38072889-65.81020445-63.44476445-65.81020444L131.35303111-25.163093330000038c-35.01397333 0-63.39584 29.44910222-63.39584 65.81020444L67.95605333 534.17528889 67.95605333 534.17528889 67.95605333 534.17528889z"  horiz-adv-x="1024" />

    
    <glyph glyph-name="chongzuo" unicode="&#58888;" d="M724.559647 895.618269c18.37951 2.582761 38.933415-8.307502 49.794727-21.582439L927.576889 658.40496c12.430778-15.229912 17.928479-35.332787 9.963821-53.547731-7.963134-18.227134-27.029856-29.178348-47.443576-32.139L632.794665 550.3312490000001c-0.124948-0.018285-0.249896-0.035046-0.374843-0.053331-20.262869-2.847895-38.771897 4.1248-51.124964 19.235859-12.442968 15.228388-14.986112 34.218923-7.027549 52.473485l30.534488 69.88084c-45.820779 9.756591-93.032745 11.225489-139.171988 4.740396-97.494294-13.701588-190.210098-62.914241-254.940653-144.486839-129.066458-162.608834-97.863042-391.531403 69.644659-511.313633 83.303581-59.569603 184.675827-80.926526 281.386911-67.334649 97.756379 13.739682 190.757125 63.162613 255.627865 144.915013 30.813335 38.825229 52.240351 81.467459 65.096256 125.487162 0 0-6.949838 27.669832 19.077389 60.448809 8.642728 10.88874 21.04303 17.475924 34.072643 19.308999 12.904665 1.813266 26.42645-1.034628 37.540705-8.982524 38.116683-27.22642 14.894686-65.681377 14.894686-65.681377-14.580793-66.124789-43.905421-130.620686-89.802388-188.451687-82.154671-103.51769-199.97126-166.122609-323.782293-183.523869-122.517367-17.21841-250.902707 9.820589-356.442417 85.279889-212.197855 151.709429-251.690487 441.684212-88.225304 647.65144 82.099816 103.415598 199.756411 165.874237 323.422688 183.254165 63.662404 8.947478 128.903416 5.953303 191.732327-9.544789l33.376288 76.35222c7.964657 18.214944 19.117006 26.168935 38.320866 33.585042C719.199084 894.56688 721.858033 895.237331 724.559647 895.618269"  horiz-adv-x="1024" />

    
    <glyph glyph-name="shanchuxian" unicode="&#58909;" d="M40.82202529 353.53597814c0 29.91539134 0 58.45016575 0 88.01286752 93.54438181 0 186.50094523 0 282.8532871 0-10.41341481 8.28219931-18.36402377 14.42564628-26.12020005 20.80572741-44.01547732 36.21408313-80.02608567 78.32442876-95.87304356 134.4564831-25.08172234 88.84787042 5.22253294 218.53398816 137.53875843 269.08026963 56.9218408 21.74472863 116.12260511 29.19795359 176.33622317 30.56952694 89.76124767 2.04379613 178.45085973-9.60101938 266.97618342-22.673178 1.37308159-0.20196803 2.66175885-0.97065229 5.02508669-1.86895887-4.86381333-25.99510103-9.70049738-51.84701586-14.67735258-78.45103601-29.24769184 3.86603025-57.59557035 7.75316273-85.98263676 11.33885065-71.64139485 9.04937531-143.38377441 16.37448769-215.73959346 10.15417169-32.73691679-2.81398863-64.94931881-8.39071939-95.74342275-20.31587874-65.92599966-25.52936807-99.66672809-74.81108806-101.73765349-145.55417782-1.33841549-45.69301851 18.97444969-80.69680019 50.83868242-110.53532398 37.22392333-34.85758047 82.09550431-58.00855002 126.34007899-82.27184983 20.03704316-10.98917314 40.2444018-15.11595474 63.03363671-15.01195646 151.37507806 0.69181673 302.7546794 0.35871963 454.13277248 0.35871962 4.75529324 0 9.51058646 0 15.15514266 0 0-29.40595019 0-58.17585196 0-87.87269634-111.60545279 0-222.70146444 0-333.79596785 0-0.39489249-0.77471283-0.78978497-1.55093389-1.18467896-2.32564672 3.8645235-2.82755254 7.67629371-5.73348234 11.60261408-8.47210874 61.96953501-43.20911196 102.70529225-100.94636175 121.41447025-174.49138152 27.42244268-107.79066755-13.76096033-200.22121087-112.90015861-251.19855773-46.45567421-23.88800126-96.31466076-35.72724947-147.85269524-41.59939623-92.744045-10.56715137-184.40741084-0.44161719-275.81605537 14.4090659-16.28706832 2.64668669-32.51384655 5.67017871-49.80321972 8.6996993 4.96630486 26.57990444 9.79243706 52.41373207 14.86424848 79.5648745 17.72496033-3.04157918 34.62245457-5.99423222 51.53652771-8.83535015 63.22957472-10.61839637 126.7379865-18.79508913 190.99699681-17.76113319 56.93841973 0.91639226 113.30258791 6.50668839 165.93938876 30.60268626 45.89046476 21.00769546 79.39003577 53.70843789 84.48144113 106.15231429 6.71920679 69.21777837-15.39328357 128.33263008-69.7377699 173.71817547-45.35087782 37.8750439-98.0901702 63.41496383-150.52048267 89.37087697-4.58949807 2.27289493-10.75103222 1.86895885-16.18307004 1.87348064-137.01424366 0.09194117-274.02848732 0.07234723-411.04122418 0.07234721C50.79985149 353.53597814 46.41835001 353.53597814 40.82202529 353.53597814z"  horiz-adv-x="1024" />

    
    <glyph glyph-name="plus-pic" unicode="&#59161;" d="M921.6 768h-819.2c-56.32 0-102.4-46.080-102.4-102.4v-563.2c0-56.32 46.080-102.4 102.4-102.4h819.2c56.32 0 102.4 46.080 102.4 102.4v563.2c0 56.32-46.080 102.4-102.4 102.4zM102.4 716.8h819.2c28.237 0 51.2-22.963 51.2-51.2v-475.277l-208.115 194.342-124.378-164.902-253.235 331.789-335.872-357.978v472.026c0 28.237 22.963 51.2 51.2 51.2zM921.6 51.2h-819.2c-28.237 0-51.2 22.963-51.2 51.2v16.333l331.853 353.715 257.51-337.382 130.752 173.363 201.485-188.173v-17.856c0-28.237-22.963-51.2-51.2-51.2zM768 435.187c56.55 0 102.4 45.85 102.4 102.4s-45.85 102.4-102.4 102.4-102.4-45.85-102.4-102.4 45.85-102.4 102.4-102.4zM768 588.787c28.237 0 51.2-22.963 51.2-51.2 0-28.237-22.963-51.2-51.2-51.2s-51.2 22.963-51.2 51.2c0 28.237 22.963 51.2 51.2 51.2z"  horiz-adv-x="1024" />

    
    <glyph glyph-name="biaoqing" unicode="&#59009;" d="M512-128c-137.309 0-265.309 53.527-363.055 148.945-95.418 97.745-148.945 225.745-148.945 363.055s53.527 265.309 148.945 363.055c97.745 95.418 225.745 148.945 363.055 148.945s265.309-53.527 363.055-148.945c200.145-200.145 200.145-523.636 0-723.782-97.745-97.745-225.745-151.273-363.055-151.273M512 828.509c-118.691 0-230.4-46.545-314.182-130.327-83.782-83.782-130.327-195.491-130.327-314.182s46.545-230.4 130.327-314.182c83.782-83.782 195.491-130.327 314.182-130.327s230.4 46.545 314.182 130.327c174.545 174.545 174.545 456.145 0 630.691-83.782 81.455-195.491 128-314.182 128M330.473 244.364s60.509-95.418 181.527-95.418c121.018 0 202.473 95.418 202.473 95.418s44.218 0 44.218-48.873c0 0-79.127-111.709-246.691-111.709-167.564 0-223.418 111.709-223.418 111.709s-2.327 48.873 41.891 48.873M363.055 549.236c-34.909 0-62.836-27.927-62.836-62.836 0-34.909 27.927-62.836 62.836-62.836 34.909 0 62.836 27.927 62.836 62.836 0 34.909-27.927 62.836-62.836 62.836M684.218 549.236c-34.909 0-62.836-27.927-62.836-62.836 0-34.909 27.927-62.836 62.836-62.836 34.909 0 62.836 27.927 62.836 62.836 0 34.909-27.927 62.836-62.836 62.836M684.218 549.236z"  horiz-adv-x="1025" />

    
    <glyph glyph-name="chehui" unicode="&#58880;" d="M299.450544 895.577701c2.703866-0.375981 5.359734-1.047948 7.935607-2.047898 19.199048-7.415632 30.350494-15.367238 38.310099-33.582334l33.374345-76.348213c62.828883 15.503231 128.073646 18.495082 191.726488 9.543527 123.657865-17.375138 241.308029-79.836039 323.407956-183.24691 163.463891-205.957783 123.96985-495.919398-88.219623-647.623871-105.530765-75.460256-233.908396-102.498915-356.422319-85.27577-123.809858 17.399137-241.620013 80.004031-323.767938 183.510896-45.901723 57.837131-75.228268 122.329931-89.803545 188.454651 0 0-23.214848 38.454092 14.887262 65.684742 11.127448 7.935606 24.638778 10.791465 37.542137 8.975554a52.797381 52.797381 0 0 0 34.07031-19.303042c26.022709-32.782374 19.079054-60.453001 19.079054-60.453001a366.597813 366.597813 0 0 1 65.10077-125.481775c64.860782-81.747945 157.856169-131.169493 255.611319-144.912811 96.707202-13.583326 198.070174 7.767615 281.370042 67.340659 167.495691 119.778058 198.702143 348.678702 69.644545 511.286636-64.732789 81.571953-157.448189 130.777512-254.931353 144.480832a400.780118 400.780118 0 0 1-139.161096-4.743765l30.526485-69.876533c7.951606-18.255094 5.415731-37.246152-7.031651-52.469397-12.351387-15.11125-30.854469-22.086904-51.125464-19.239046a6.087698 6.087698 0 0 0-0.375981 0.055998L133.922756 572.697719c-20.422987 2.959853-39.486041 13.91131-47.445646 32.142405-7.959605 18.207097-2.471877 38.318099 9.959506 53.541344L249.653015 873.994772c10.863461 13.279341 31.422441 24.166801 49.797529 21.582929"  horiz-adv-x="1024" />

    
    <glyph glyph-name="biaoge" unicode="&#59809;" d="M383.04 481.216h256v160h-256v-160zM704 480h256V640h-256v-160zM64 480h256V640H64v-160z m0-224h256v160H64v-160z m320 0h256v160h-256v-160z m320 0h256v160h-256v-160z m0-224h256v160h-256v-160z m-320 0h256v160h-256v-160zM64 32h256v160H64v-160zM514.304 800h440.832C1005.632 800 1024 782.944 1024 736v-704c0-46.944-18.368-64-68.864-64H64.288C18.368-32 0-14.944 0 27.744V740.256C0 782.944 18.368 800 64.288 800h450.016z"  horiz-adv-x="1024" />

    
    <glyph glyph-name="xieti" unicode="&#58889;" d="M784.16 698.4H488c-43.68 0-79.2 35.52-79.2 79.2S444.32 856.8 488 856.8h296.16c43.68 0 79.2-35.52 79.2-79.2s-35.52-79.2-79.2-79.2zM619.04-88.79999999999995H323.36c-43.68 0-79.2 35.52-79.2 79.2s35.52 79.2 79.2 79.2h296.16c43.68 0 79.2-35.52 79.2-79.2s-36-79.2-79.68-79.2zM403.55328 9.727999999999952l163.7888 822.46656 165.69856-32.9984-163.7888-822.46656z"  horiz-adv-x="1024" />

    
    <glyph glyph-name="ziti" unicode="&#59079;" d="M822.96608 452.8c-4.8 14.4-19.2 24-35.2 24-14.4 0-30.4-9.6-35.2-24L554.16608 11.2c-9.6-19.2 0-44.8 19.2-54.4 19.2-9.6 44.8 0 54.4 19.2l49.6 104h228.8l49.6-108.8c4.8-14.4 19.2-24 35.2-24 4.8 0 9.6 0 14.4 4.8 14.4 19.2 24 40 14.4 59.2L822.96608 452.8z m-35.2-110.4l80-172.8h-153.6l73.6 172.8zM421.36608 804.8c-4.8 14.4-20.8 24-40 24-14.4 0-30.4-9.6-40-24L3.76608 16c-9.6-19.2 0-44.8 19.2-54.4 19.2-9.6 44.8 0 54.4 19.2l104 238.4h401.6l4.8 9.6 40 84.8v9.6L421.36608 804.8z m-35.2-120l163.2-387.2H222.96608l163.2 387.2z"  horiz-adv-x="1024" />

    
    <glyph glyph-name="xiahuaxian" unicode="&#58946;" d="M192.44581673 881.1026963h-50.04167143c46.31340121 0 82.85044939-37.19985177 82.85044939-83.01615028v-347.64048561c0-97.10072667 21.29256549-170.58907529 66.4460604-220.46504582 46.56195255-51.36727861 120.05030115-77.71372151 220.29934491-77.71372152 98.84058611 0 172.32893472 26.3464429 220.29934491 77.71372152 43.74503728 49.87597053 66.36320995 123.44716958 66.36320995 220.38219536V798.16939646A82.68474848 82.68474848 0 0 0 881.5958547 881.1026963h-50.04167143c46.31340121 0 82.85044939-37.03415088 82.85044938-82.85044939v-346.48057932c0-128.91529923-33.80298335-227.3416331-100.24904375-295.2790016-69.18012524-69.34582613-169.42916898-103.97731397-302.1555889-103.97731397-132.72641991 0-232.97546366 34.63148784-300.74713125 102.56885633-67.85451805 69.34582613-101.74035184 167.77216-101.74035185 296.68745924V798.33509737c0 46.1477003 37.11700133 82.76759893 82.93329983 82.76759893zM97.74775309-67.94920138999998c0 25.02083571 20.46406099 45.23634537 44.57354176 45.23634537h739.3574103a45.23634537 45.23634537 0 0 0 0-90.30698983l-739.3574103-0.08285045A45.31919582 45.31919582 0 0 0 97.74775309-67.94920138999998z"  horiz-adv-x="1024" />

    
    <glyph glyph-name="beijingse" unicode="&#58953;" d="M14.8973037 715.4017975300001c0 91.13549431 74.56540445 165.70089876 165.70089877 165.70089877h662.80359506c91.13549431 0 165.70089876-74.56540445 165.70089877-165.70089877v-662.80359506c0-91.13549431-74.56540445-165.70089876-165.70089877-165.70089877H180.59820247c-91.13549431 0-165.70089876 74.56540445-165.70089877 165.70089877V715.4017975300001z m439.10738173-8.28504494l-248.55134815-654.51855012h115.99062914l57.99531456 165.70089877h273.40648297l57.99531457-165.70089877h115.99062913l-248.55134815 654.51855012H454.00468543z m-49.71026962-397.68215704L512 591.12612347 611.42053925 301.14955061H404.29441581z"  horiz-adv-x="1024" />

    
    <glyph glyph-name="jiacu" unicode="&#59851;" d="M286.125383 788.618505a62.583277 62.583277 0 0 1-62.834952-62.834952v-209.461028c0-34.915764 27.919189-55.855156 55.855155-55.855156H579.360756q188.521637 0 188.521636 167.565467C767.882392 732.76335 705.047439 788.618505 579.360756 788.618505z m-4.060362-429.525978c-35.486228 0-56.761187-28.372204-56.761187-56.761187v-276.708689c0-28.372204 21.274959-49.663941 49.663941-49.663941h312.178139c141.894578 0 219.947502 63.858433 219.947502 191.575297S736.154516 359.092527 587.145914 359.092527zM145.086501-86.75879499999996C117.60355-59.259064999999964 103.862075-32.90026399999999 103.862075 23.20656699999995S96.982948 744.810211 96.982948 744.810211C96.982948 827.2087300000001 165.774218 896 248.172736 896h329.879308C784.224513 896 887.243635 813.534368 887.243635 641.723976c0-82.465632-27.482951-144.293883-75.586505-185.551867-13.741476-13.741476-27.482951-20.620603-48.103554-34.362078l-13.741476-6.862349 13.741476-6.879127c27.482951-6.862349 41.224427-20.620603 68.79127-41.241205q82.465632-72.146942 82.465632-206.17247 0-288.587767-329.879307-288.587767H261.914212c-44.127083-0.067113-89.344759 13.691141-116.827711 41.174092z"  horiz-adv-x="1024" />

    
    <glyph glyph-name="quxiaolianjie" unicode="&#58992;" d="M512 896C352.711111 896 227.555556 770.844444 227.555556 611.555556v-113.777778h56.888888V611.555556c0 125.155556 102.4 227.555556 227.555556 227.555555s227.555556-102.4 227.555556-227.555555v-113.777778h56.888888V611.555556c0 159.288889-125.155556 284.444444-284.444444 284.444444zM739.555556 156.444444c0-125.155556-102.4-227.555556-227.555556-227.555555s-227.555556 102.4-227.555556 227.555555v113.777778H227.555556v-113.777778c0-159.288889 125.155556-284.444444 284.444444-284.444444s284.444444 125.155556 284.444444 284.444444v113.777778h-56.888888v-113.777778zM483.555556 611.555556h56.888888v-455.111112h-56.888888zM89.6 766.122667l40.220444 40.277333 804.522667-804.522667-40.220444-40.277333z"  horiz-adv-x="1024" />

    
    <glyph glyph-name="zihao" unicode="&#59089;" d="M775.53100573 564.31068729V689.14116381a41.61015922 41.61015922 0 0 0 83.22031729 0v-124.83047652H983.5817984a41.61015922 41.61015922 0 0 0 0-83.2203173h-124.83047538V356.25989460999995a41.61015922 41.61015922 0 0 0-83.22031729 0v124.83047538H650.70052921a41.61015922 41.61015922 0 0 0 0 83.2203173h124.83047652zM208.41228174 200.69338112000003l-47.76846222-133.98471111c-3.88361443-10.8741211-7.76723001-21.3598811-11.65084445-31.45728-3.88361443-10.0973989-8.34977223-19.41807445-13.3984711-27.96202667a70.09924779 70.09924779 0 0 0-17.47626667-20.38897777 36.39501938 36.39501938 0 0 0-22.71914667-7.5730489c-15.53445888 0-27.57366557 4.8545189-36.11761778 14.56355556-8.54395221 9.70903666-8.54395221 27.76784555 0 54.17642667L303.94920619 759.93391445c3.88361443 12.42756779 10.67994112 22.33078557 20.38897778 29.70965334 9.70903666 7.37886777 22.33078557 11.06830222 37.86524444 11.06830222 16.31118222 0 29.51547221-3.68943445 39.61287111-11.06830222 10.0973989-7.37886777 17.08790557-17.28208555 20.97152-29.70965334l245.83281778-714.19676444c6.21378333-18.64135111 6.60214557-34.36999111 1.16508444-47.18592-5.43706112-12.81592889-18.25299001-19.22389333-38.44778667-19.22389334-13.20428999-0.77672334-23.88423111 2.91271111-32.03982222 11.06830223-8.15559111 8.15559111-14.17519445 18.83553223-18.05880888 32.03982222l-64.07964445 178.25792h-308.74737778z m287.77585778 81.55591111l-132.81962667 399.62396444-132.81962666-399.62396444h265.63925333z"  horiz-adv-x="1024" />

    
    <glyph glyph-name="daimakuai" unicode="&#58993;" d="M512 67.20000000000005l102.4 614.4c3.2 28.8-12.8 54.4-41.6 57.6-28.8 6.4-54.4-12.8-60.8-38.4l-102.4-614.4c-3.2-28.8 12.8-54.4 41.6-57.6h9.6c25.6-3.2 44.8 16 51.2 38.4m240 73.6L1024 384l-259.2 230.4c-22.4 19.2-54.4 16-73.6-3.2-19.2-22.4-16-54.4 3.2-73.6l172.8-153.6-188.8-166.4c-22.4-19.2-22.4-51.2-3.2-73.6 9.6-12.8 25.6-16 38.4-16 16 0 28.8 3.2 38.4 12.8m-457.6 0c-12.8 0-25.6 3.2-35.2 12.8L0 384l272 243.2c22.4 19.2 54.4 16 73.6-3.2 19.2-22.4 16-54.4-3.2-73.6L153.6 384l172.8-153.6c22.4-19.2 22.4-51.2 3.2-73.6-9.6-9.6-22.4-16-35.2-16"  horiz-adv-x="1024" />

    
    <glyph glyph-name="qingchuyangshi" unicode="&#58999;" d="M627.25984 128H176.05984l-96 96c-6.4 6.4-6.4 16-3.2 19.2l297.6 297.6 332.8-332.8-80-80z m368 390.4L684.85984 832c-16 16-41.6 28.8-64 28.8s-41.6-6.4-57.6-22.4L22.45984 294.4c-32-32-28.8-86.4 3.2-121.6l118.4-118.4h515.2l342.4 342.4c32 35.2 28.8 89.6-6.4 121.6zM0.05984-92.79999999999995h1024v73.6H0.05984v-73.6z"  horiz-adv-x="1024" />

    
    <glyph glyph-name="lianjie" unicode="&#59355;" d="M722.664727 267.264a34.955636 34.955636 0 0 0-24.692363 59.601455l154.949818 154.926545c68.049455 68.049455 68.049455 178.781091 0 246.853818-68.072727 68.049455-178.850909 68.049455-246.877091 0l-154.926546-154.926545a34.909091 34.909091 0 1 0-49.338181 49.361454L556.683636 778.0072729999999c95.278545 95.232 250.321455 95.278545 345.6 0 95.278545-95.278545 95.278545-250.321455 0-345.576728l-154.926545-154.949818a34.792727 34.792727 0 0 0-24.669091-10.216727zM290.816-77.70763599999998a243.665455 243.665455 0 0 0-172.823273 71.447272c-95.278545 95.301818-95.278545 250.321455 0 345.6l138.472728 138.449455a34.909091 34.909091 0 1 0 49.384727-49.361455l-138.472727-138.449454c-68.072727-68.049455-68.072727-178.804364 0-246.877091 68.072727-68.049455 178.827636-68.002909 246.853818 0l138.472727 138.496a34.909091 34.909091 0 1 0 49.338182-49.361455l-138.426182-138.472727a243.595636 243.595636 0 0 0-172.8-71.447273z m137.076364 346.414545a34.955636 34.955636 0 0 0-24.692364 59.601455l164.538182 164.538181a34.909091 34.909091 0 1 0 49.361454-49.361454l-164.538181-164.561455a34.792727 34.792727 0 0 0-24.669091-10.24z"  horiz-adv-x="1024" />

    
    <glyph glyph-name="juzhongduiqi" unicode="&#58919;" d="M364.15158697 542.95075474h741.54183589c14.61218387 0 27.05619893-5.2050163 37.45916992-15.5232382 10.33234661-10.41709569 15.50911346-22.84698604 15.50911346-37.48741935 0-14.61924623-5.17676685-27.04913656-15.50911346-37.45210753-10.40297098-10.33940898-22.84698604-15.52323819-37.45916992-15.5232382H364.15158697c-14.61924623 0-27.11976093 5.18382922-37.43092046 15.5232382-10.40297098 10.40297098-15.5656131 22.83992366-15.56561237 37.45210753 0 14.64043332 5.16264212 27.07032366 15.56561237 37.48741935 10.31115879 10.31115879 22.8116735 15.52323819 37.43092046 15.5232382m-105.93656602-211.85194421h953.37259302c14.61924623 0 27.07738602-5.15557975 37.48035699-15.55148836 10.31115879-10.33234661 15.50911346-22.82579894 15.50911346-37.43091973 0-14.62630859-5.19089157-27.10563621-15.50911346-37.43091973-10.40297098-10.41003333-22.86817312-15.58680018-37.48035699-15.58680018H258.21502095c-14.61924623 0-27.07738602 5.17676685-37.49448172 15.57973783C210.42350516 251.01076624999996 205.21142577 263.49009384 205.21142577 278.10934008000004s5.21207939 27.10563621 15.50911346 37.43091972c10.41709569 10.41003333 22.88229858 15.55855001 37.49448172 15.55855074m105.93656601-211.89431911h741.54183589c14.61218387 0 27.05619893-5.12026722 37.45916992-15.53736293 10.33234661-10.33234661 15.50911346-22.8116735 15.50911346-37.43092044 0-14.6474957-5.17676685-27.13388565-15.50911346-37.43091972-10.40297098-10.41003333-22.84698604-15.57267547-37.45916992-15.57267547H364.15158697c-14.61924623 0-27.11976093 5.16264212-37.43092046 15.5656131-10.40297098 10.30409643-15.5656131 22.7904864-15.56561237 37.43091972 0 14.62630859 5.16264212 27.10563621 15.56561237 37.43091973 10.31115879 10.42415807 22.8116735 15.53736293 37.43092046 15.53736364M258.21502095 754.78857422h953.37259302c14.61924623 0 27.07738602-5.15557975 37.48035699-15.55148764 10.31115879-10.30409643 15.50911346-22.8116735 15.50911346-37.43092045 0-14.62630859-5.19089157-27.11976093-15.50911346-37.43091973-10.40297098-10.42415807-22.86817312-15.55855001-37.48035699-15.55855001H258.21502095c-14.61924623 0-27.07738602 5.13439194-37.49448172 15.55148764C210.42350516 674.67934282 205.21142577 687.1798575299999 205.21142577 701.79910375c0 14.63337096 5.21207939 27.13388565 15.50911346 37.43092046C231.13763494 749.64711992 243.60283709 754.78857422 258.21502095 754.78857422"  horiz-adv-x="1462" />

    
    <glyph glyph-name="quanjuduiqi" unicode="&#58925;" d="M258.19383386 542.95075474h953.4008432c14.61924623 0 27.07032366-5.2050163 37.45916917-15.5232382 10.33234661-10.40297098 15.52323819-22.84698604 15.52323819-37.47329462s-5.19089157-27.06326129-15.52323819-37.46623226c-10.38178315-10.33940898-22.83286131-15.52323819-37.45916917-15.5232382H258.19383386c-14.61924623 0-27.07032366 5.18382922-37.4591699 15.5232382C210.42350516 462.89802299 205.21142577 475.32791332 205.21142577 489.95422192c0 14.61924623 5.21207939 27.07032366 15.52323819 37.47329462 10.38178315 10.31115879 22.83286131 15.52323819 37.4591699 15.5232382m0-211.85194421h953.4008432c14.61924623 0 27.07032366-5.16264212 37.45916917-15.55148836 10.33234661-10.33234661 15.52323819-22.82579894 15.52323819-37.43091973 0-14.62630859-5.19089157-27.11976093-15.52323819-37.43091973-10.38178315-10.41003333-22.83286131-15.58680018-37.45916917-15.58680018H258.19383386c-14.61924623 0-27.07032366 5.17676685-37.4591699 15.57973783C210.42350516 250.98957915999995 205.21142577 263.49009384 205.21142577 278.10934008000004s5.21207939 27.10563621 15.52323819 37.43091972c10.38178315 10.39590861 22.83286131 15.55855001 37.4591699 15.55855074m0-211.89431911h953.4008432c14.61924623 0 27.07032366-5.13439194 37.45916917-15.55148837 10.33234661-10.31115879 15.52323819-22.79754877 15.52323819-37.43091973 0-14.63337096-5.19089157-27.11976093-15.52323819-37.43091973-10.38178315-10.39590861-22.83286131-15.55855001-37.45916917-15.55855073H258.19383386c-14.61924623 0-27.07032366 5.16264212-37.4591699 15.55148838-10.31115879 10.31115879-15.52323819 22.8116735-15.52323819 37.43091971 0 14.64043332 5.21207939 27.11976093 15.52323819 37.43091972 10.38178315 10.42415807 22.83286131 15.55855001 37.4591699 15.55855075M258.19383386 754.78857422h953.4008432c14.61924623 0 27.07032366-5.15557975 37.45916917-15.53736293C1259.38619285 728.94005251 1264.57708442 716.43247472 1264.57708442 701.82029158c0-14.64043332-5.19089157-27.13388565-15.52323819-37.43092045-10.38178315-10.42415807-22.83286131-15.57267547-37.45916917-15.57267474H258.19383386c-14.61924623 0-27.07032366 5.15557975-37.4591699 15.56561237C210.42350516 674.6864052 205.21142577 687.1798575299999 205.21142577 701.82029158c0 14.61924623 5.21207939 27.11976093 15.52323819 37.43091971C231.11644712 749.64711992 243.56752527 754.78857422 258.19383386 754.78857422"  horiz-adv-x="1462" />

    
    <glyph glyph-name="youduiqi" unicode="&#58940;" d="M470.03921975 542.94470191h741.54889753c14.64085191 0 27.09228492-5.2051655 37.49555355-15.5236814 10.33264136-10.38208008 15.52368141-22.83351381 15.52368139-37.46024028 0-14.64085191-5.19104004-27.07816019-15.52368139-37.46730263-10.40326789-10.325579-22.85470163-15.52368141-37.49555355-15.52368139H470.03921975c-14.60553864 0-27.099348 5.1981024-37.43198937 15.52368139-10.38208008 10.38914244-15.5519323 22.82645072-15.5519323 37.46730263 0 14.61966409 5.16278913 27.0710971 15.5519323 37.46024028 10.33264136 10.31145354 22.82645072 15.52368141 37.43198938 15.5236814M258.19534743 331.10083031h953.39276985c14.64085191 0 27.09228492-5.17691458 37.49555354-15.55193229 10.33264136-10.33264136 15.52368141-22.84057617 15.5236814-37.44611482 0-14.62672646-5.19104004-27.12053581-15.5236814-37.41786391-10.40326789-10.42445571-22.85470163-15.58724558-37.49555354-15.58724556H258.20240981c-14.63378883 0-27.06403474 5.16278913-37.46730263 15.58724556C210.38834035 250.98224739 205.21142577 263.47605674 205.21142577 278.1027832c0 14.60553864 5.17691458 27.12053581 15.52368141 37.44611482 10.40326789 10.37501771 22.83351381 15.5519323 37.46024026 15.55193229m211.84387232-211.90037338h741.54889752c14.64085191 0 27.09228492-5.15572678 37.49555355-15.53780686 10.33264136-10.34676682 15.52368141-22.82645072 15.52368139-37.43198936 0-14.64085191-5.19104004-27.13466127-15.52368139-37.46730264-10.40326789-10.37501771-22.85470163-15.5519323-37.49555355-15.55193229H470.03921975c-14.60553864 0-27.099348 5.17691458-37.43198937 15.55193229-10.38208008 10.33264136-15.5519323 22.82645072-15.5519323 37.46730264 0 14.60553864 5.16278913 27.08522256 15.5519323 37.43198936 10.33264136 10.38208008 22.82645072 15.53780686 37.43198938 15.53780686M258.19534743 754.78857422h953.39276985c14.64085191 0 27.09228492-5.13453896 37.49555354-15.53780686C1259.41631217 728.93931382 1264.60735221 716.43844138 1264.60735221 701.83290346c0-14.64085191-5.19104004-27.14878599-15.52368139-37.4531779-10.40326789-10.39620553-22.85470163-15.56605776-37.49555354-15.56605704H258.20240981c-14.63378883 0-27.06403474 5.16985222-37.46730263 15.56605704C210.38834035 674.68411673 205.21142577 687.19911392 205.21142577 701.83290346 205.21142577 716.43844138 210.38834035 728.93225074 220.73510718 739.25076737 231.13837506 749.65403526 243.56862098 754.78857422 258.19534743 754.78857422"  horiz-adv-x="1462" />

    
    <glyph glyph-name="zuoduiqi" unicode="&#58945;" d="M258.20947288 542.93057718h741.55596063c14.61966409 0 27.099348-5.19104004 37.40373846-15.52368213 10.41739334-10.40326789 15.58018248-22.83351381 15.58018247-37.47436499 0-14.61966409-5.16278913-27.04990928-15.58018247-37.46730263-10.30439118-10.325579-22.78407509-15.52368141-37.40373846-15.52368139H258.20947288c-14.60553864 0-27.0710971 5.1981024-37.48849044 15.52368139C210.42365363 462.88968314 205.21142577 475.31992906 205.21142577 489.93959243c0 14.64085191 5.21222786 27.0710971 15.50955667 37.47436572 10.41739334 10.33264136 22.88295181 15.52368141 37.48849044 15.52368139m0-211.85799704h953.39983222c14.60553864 0 27.0710971-5.13453896 37.48849045-15.5519323 10.2973281-10.31145354 15.50955667-22.81232527 15.50955666-37.41786463 0-14.64085191-5.21222786-27.13466127-15.50955666-37.45317718-10.41739334-10.38208008-22.88295181-15.56605776-37.48849045-15.56605703H258.20947288c-14.60553864 0-27.0710971 5.17691458-37.48849044 15.56605703C210.42365363 250.96105956999997 205.21142577 263.46193130999995 205.21142577 278.1027832c0 14.60553864 5.21222786 27.099348 15.50955667 37.41786391 10.41739334 10.41739334 22.88295181 15.5519323 37.48849044 15.55193231m0-211.88624794h741.55596063c14.61966409 0 27.099348-5.15572678 37.40373845-15.53780685 10.41739334-10.33264136 15.58018248-22.82645072 15.58018248-37.46730264 0-14.61966409-5.16278913-27.099348-15.58018248-37.40373845-10.30439118-10.41739334-22.78407509-15.56605776-37.40373845-15.56605776H258.20947288c-14.60553864 0-27.0710971 5.15572678-37.48849044 15.56605776C210.42365363 39.08187398999996 205.21142577 51.56155862000003 205.21142577 66.18122200000005c0 14.64085191 5.21222786 27.13466127 15.50955667 37.46730263 10.41739334 10.38208008 22.88295181 15.53780686 37.48849044 15.53780685M258.20947288 754.78857422h953.39983222c14.60553864 0 27.0710971-5.16278913 37.48849045-15.5519323C1259.39512436 728.92518837 1264.60735221 716.41019119 1264.60735221 701.79052711c0-14.61966409-5.21222786-27.10641037-15.50955667-37.43198937-10.41739334-10.41033098-22.88295181-15.55899466-37.48849044-15.55899467H258.20947288c-14.60553864 0-27.0710971 5.15572678-37.48849044 15.5519323C210.42365363 674.68411673 205.21142577 687.1779261 205.21142577 701.78346474c0 14.62672646 5.21222786 27.13466127 15.50955667 37.45317718C231.13131271 749.61872199 243.60393424 754.78857422 258.20947288 754.78857422"  horiz-adv-x="1462" />

    
    <glyph glyph-name="biaoti" unicode="&#59379;" d="M136-128c-17.6 0-32 14.4-32 32V864c0 17.6 14.4 32 32 32s32-14.4 32-32v-960c0-17.6-14.4-32-32-32zM888-128c-17.6 0-32 14.4-32 32V864c0 17.6 14.4 32 32 32s32-14.4 32-32v-960c0-17.6-14.4-32-32-32zM104 416h768v-64h-768z"  horiz-adv-x="1024" />

    
    <glyph glyph-name="wenziyanse" unicode="&#58949;" d="M213.504 38.912c27.136 0 44.544 10.24 50.176 31.744l54.784 151.04H706.56l50.176-151.04c9.216-21.504 25.6-31.744 50.176-31.744 33.28 0 50.176 11.776 50.176 36.864 0 15.36-4.096 31.744-13.824 50.176L583.68 815.616c-11.776 42.496-36.864 64-73.216 64-33.28 0-57.856-21.504-73.216-64l-256-689.664c-9.216-17.92-13.824-34.816-13.824-50.176 3.072-24.576 18.432-36.864 46.08-36.864zM509.44 760.32h4.096l159.744-452.096H349.696l159.744 452.096zM981.504-25.6H42.496c-24.064 0-42.496-19.456-42.496-42.496 0-23.04 19.456-42.496 42.496-42.496h938.496c24.064 0 42.496 19.456 42.496 42.496 0.512 22.528-18.432 42.496-41.984 42.496z"  horiz-adv-x="1024" />

    


  </font>
</defs>
</svg>
